<?xml version="1.0" standalone="no"?>
<!DOCTYPE svg PUBLIC "-//W3C//DTD SVG 20010904//EN"
 "http://www.w3.org/TR/2001/REC-SVG-20010904/DTD/svg10.dtd">
<svg version="1.0" xmlns="http://www.w3.org/2000/svg"
 width="1189.000000pt" height="941.000000pt" viewBox="0 0 1189.000000 941.000000"
 preserveAspectRatio="xMidYMid meet">

<g transform="translate(0.000000,941.000000) scale(0.100000,-0.100000)"
fill="#000000" stroke="none">
<path d="M5927 8903 c-11 -3 -30 -28 -43 -56 -14 -29 -38 -70 -54 -92 -16 -22
-30 -47 -30 -55 0 -8 -7 -24 -15 -34 -8 -11 -15 -27 -15 -37 0 -9 -7 -19 -15
-22 -23 -9 -67 -106 -61 -133 11 -41 49 -41 90 0 20 19 36 41 36 48 0 17 57
84 65 76 4 -3 1 -16 -6 -29 -8 -16 -10 -48 -5 -108 8 -105 8 -425 0 -463 -4
-18 -2 -28 5 -28 6 0 11 -13 11 -30 0 -16 -5 -30 -11 -30 -6 0 -8 -9 -3 -22 9
-31 10 -211 0 -226 -4 -7 -12 -10 -17 -6 -6 3 -20 7 -32 9 -12 2 -49 11 -82
20 -33 8 -71 17 -85 19 -14 2 -38 9 -53 15 -16 6 -47 11 -70 11 -24 0 -51 6
-62 14 -11 7 -51 19 -90 26 -38 7 -75 17 -81 21 -6 5 -13 7 -15 4 -3 -2 -33 5
-68 15 -34 11 -76 20 -92 20 -16 0 -29 4 -29 9 0 12 -58 24 -165 34 -16 2 -51
13 -76 25 -25 12 -75 24 -111 26 -35 3 -77 12 -93 20 -16 8 -32 13 -37 10 -8
-5 -73 14 -93 27 -5 3 -35 12 -65 19 -30 7 -84 21 -120 30 -36 10 -87 23 -115
29 -27 5 -75 16 -105 23 -31 8 -61 13 -67 11 -6 -2 -14 1 -18 6 -3 6 -22 11
-40 11 -19 0 -58 9 -87 20 -90 34 -158 20 -158 -33 0 -9 -5 -17 -10 -17 -6 0
-24 -28 -41 -62 -17 -35 -40 -80 -50 -100 -11 -20 -19 -57 -19 -81 0 -23 -5
-48 -10 -53 -14 -14 -18 -541 -6 -639 5 -38 14 -83 22 -100 7 -16 22 -55 34
-87 11 -31 27 -62 35 -68 8 -7 15 -23 15 -35 0 -12 7 -28 15 -35 8 -7 15 -18
15 -26 0 -7 8 -19 18 -26 9 -7 26 -30 37 -52 11 -21 45 -58 75 -82 30 -23 66
-54 80 -68 14 -14 29 -26 33 -26 5 0 25 -11 45 -25 20 -14 45 -25 56 -25 11 0
31 -11 45 -24 51 -46 302 -80 394 -52 30 9 49 11 53 4 4 -6 20 -7 38 -3 17 4
49 8 71 10 145 11 258 41 281 73 8 11 29 24 47 27 37 8 107 45 107 57 0 4 5 8
11 8 19 0 99 70 99 86 0 8 7 14 16 14 8 0 31 16 50 36 32 34 36 36 76 29 79
-13 149 -15 168 -5 14 8 20 21 20 45 0 39 -20 55 -68 55 -16 0 -43 5 -61 11
-25 9 -31 16 -31 40 0 16 6 40 14 52 8 12 18 56 22 98 6 70 4 80 -24 141 -17
36 -35 69 -41 72 -6 4 -11 15 -11 26 0 10 -7 20 -15 24 -8 3 -15 12 -15 21 0
17 -165 193 -195 207 -27 12 -55 29 -90 54 -17 12 -41 25 -55 29 -14 4 -32 13
-40 20 -34 29 -126 45 -242 42 -62 -1 -117 -5 -123 -9 -5 -3 -27 -8 -47 -12
-20 -4 -50 -13 -65 -21 -15 -8 -34 -15 -41 -15 -7 0 -15 -7 -18 -15 -4 -8 -11
-15 -17 -15 -11 0 -109 -88 -116 -104 -2 -6 -15 -22 -28 -35 -12 -14 -23 -31
-23 -38 0 -7 -4 -13 -9 -13 -5 0 -11 -17 -14 -37 -3 -21 -11 -56 -18 -78 -7
-22 -12 -65 -12 -95 0 -54 21 -130 35 -130 5 0 8 -6 8 -13 0 -21 72 -93 115
-115 54 -28 151 -62 175 -62 34 0 63 38 56 73 -7 35 -21 47 -54 47 -47 0 -123
33 -160 69 -50 48 -67 107 -57 196 5 53 13 72 40 105 48 58 146 139 175 146
14 4 41 15 60 25 20 11 72 22 125 27 108 10 170 -4 290 -67 91 -48 132 -83
226 -197 104 -124 134 -211 97 -283 -10 -19 -18 -44 -18 -56 -1 -38 -33 -63
-89 -68 -28 -3 -54 -1 -57 4 -3 5 -52 9 -109 9 -93 0 -105 -2 -115 -19 -16
-30 -12 -59 10 -71 17 -9 125 -27 210 -35 14 -1 31 -3 38 -4 22 -2 12 -15 -28
-41 -22 -13 -40 -28 -40 -32 0 -4 -6 -8 -13 -8 -7 0 -31 -13 -53 -29 -21 -16
-67 -43 -101 -61 -35 -18 -63 -37 -63 -42 0 -5 -5 -6 -10 -3 -6 4 -43 -1 -83
-9 -74 -16 -225 -34 -332 -40 -65 -3 -224 20 -239 35 -6 5 -17 9 -25 9 -9 0
-34 14 -55 30 -22 17 -47 30 -56 30 -9 0 -24 8 -34 18 -9 11 -34 28 -56 38
-22 10 -40 22 -40 27 0 4 -7 7 -15 7 -8 0 -15 8 -15 19 0 10 -15 30 -34 45
-19 14 -38 36 -41 48 -4 13 -26 64 -50 113 -48 101 -71 174 -80 255 -9 67 -9
454 -1 530 8 85 40 182 69 211 38 39 153 60 257 46 77 -10 174 -28 195 -36 11
-5 33 -14 48 -20 15 -6 39 -11 53 -11 13 0 41 -7 62 -16 20 -8 51 -17 67 -18
17 -2 37 -6 45 -9 65 -21 101 -29 113 -24 8 3 18 2 23 -3 13 -11 102 -38 154
-45 25 -3 69 -13 99 -21 30 -9 63 -17 75 -18 12 -1 28 -5 36 -8 27 -11 81 -24
140 -34 19 -3 44 -9 55 -14 11 -4 56 -16 100 -25 44 -9 91 -21 105 -26 44 -15
221 -59 241 -59 11 0 27 -4 37 -9 28 -14 84 -29 135 -36 l47 -7 1 -42 c1 -22
0 -45 -2 -51 -4 -15 -1 -162 5 -217 3 -26 0 -50 -5 -54 -5 -3 -7 -15 -3 -27 9
-27 13 -149 6 -161 -9 -16 -8 -248 1 -294 6 -27 5 -47 -1 -55 -13 -16 -13
-145 -1 -153 6 -4 6 -10 0 -18 -6 -7 -7 -24 -2 -42 4 -16 4 -45 0 -64 -4 -19
-4 -71 0 -115 5 -50 4 -82 -2 -86 -5 -4 -7 -14 -4 -23 18 -47 -30 -106 -87
-106 -12 0 -26 -4 -31 -9 -6 -6 -28 -14 -50 -20 -38 -9 -175 -58 -240 -86 -16
-7 -50 -20 -75 -30 -25 -10 -54 -21 -65 -26 -11 -5 -44 -14 -73 -19 -30 -5
-66 -16 -80 -24 -15 -8 -76 -30 -137 -49 -150 -48 -317 -106 -329 -115 -6 -4
-37 -16 -68 -27 -32 -10 -58 -21 -58 -24 0 -3 -13 -7 -29 -8 -16 -1 -59 -13
-97 -27 -71 -25 -85 -30 -194 -65 -70 -22 -145 -26 -760 -36 -157 -3 -323 -7
-370 -10 -242 -14 -441 -18 -450 -9 -3 3 7 16 23 28 15 12 27 26 27 32 0 6 11
17 25 24 14 7 25 17 25 21 0 5 14 22 31 40 25 26 29 36 23 62 -3 18 -12 35
-18 39 -16 11 -46 10 -46 -2 0 -5 -7 -10 -15 -10 -9 0 -25 -16 -36 -35 -12
-19 -26 -35 -32 -35 -15 0 -57 -44 -57 -59 0 -6 -6 -11 -14 -11 -7 0 -24 -13
-37 -28 -13 -15 -36 -33 -51 -40 -16 -6 -28 -20 -28 -29 0 -10 -3 -28 -6 -41
-6 -19 5 -34 62 -88 38 -35 71 -64 74 -64 3 0 26 -19 51 -42 90 -85 154 -99
179 -39 6 17 9 34 6 40 -11 17 -123 101 -135 101 -16 0 -13 20 4 26 8 4 22 1
30 -6 8 -6 22 -9 32 -6 10 3 144 8 298 11 154 3 294 8 310 11 39 8 213 12 514
13 194 1 248 -2 260 -13 23 -19 110 -62 146 -70 17 -4 63 -23 103 -42 40 -19
81 -34 92 -34 10 0 22 -4 25 -10 3 -5 24 -14 45 -20 22 -6 86 -32 142 -59 57
-27 119 -52 138 -56 19 -4 42 -14 51 -22 9 -8 27 -15 40 -16 13 -2 47 -14 74
-28 28 -14 69 -31 93 -39 23 -7 42 -16 42 -20 0 -4 20 -11 45 -14 24 -4 47
-11 50 -17 4 -5 16 -9 29 -9 12 0 37 -11 56 -25 19 -14 42 -25 53 -25 10 0 30
-9 44 -20 14 -11 44 -25 66 -31 42 -11 111 -39 160 -65 15 -9 27 -12 27 -8 0
5 5 3 12 -4 7 -7 24 -12 40 -12 15 0 31 -6 35 -13 4 -7 27 -21 50 -31 43 -19
57 -42 41 -70 -5 -9 -6 -21 -3 -26 4 -6 6 -68 5 -138 -1 -70 -1 -159 -1 -199
l2 -71 -33 -8 c-18 -5 -52 -7 -75 -5 -23 1 -48 -1 -55 -5 -7 -5 -39 -9 -70
-10 -69 -3 -75 -6 -83 -45 -7 -33 10 -63 31 -55 7 3 15 2 18 -2 3 -5 38 -5 78
-1 40 4 99 8 131 8 l57 1 2 -42 c0 -24 1 -50 0 -58 -4 -37 -5 -90 -2 -150 1
-36 2 -70 1 -77 -1 -12 -166 -12 -178 1 -3 3 -23 6 -43 6 -43 0 -70 -24 -70
-63 0 -39 49 -55 178 -62 l106 -5 0 -127 1 -128 -80 0 c-94 0 -121 -8 -129
-38 -10 -38 19 -67 67 -68 51 0 130 -9 137 -16 2 -2 6 -133 8 -291 5 -313 5
-307 -2 -372 -2 -25 -4 -59 -5 -77 -1 -26 -6 -32 -31 -38 -16 -4 -32 -11 -35
-16 -4 -5 -14 -9 -24 -9 -10 0 -52 -13 -92 -29 -41 -16 -146 -56 -234 -91 -88
-34 -190 -75 -228 -91 -37 -16 -74 -29 -81 -29 -8 0 -27 -6 -43 -14 -65 -33
-121 -56 -133 -56 -7 0 -49 -15 -94 -34 -45 -18 -103 -41 -131 -51 -27 -10
-54 -22 -60 -26 -5 -5 -17 -9 -27 -9 -10 0 -26 -4 -36 -9 -59 -31 -132 -61
-149 -61 -11 0 -26 -7 -33 -15 -7 -8 -16 -13 -20 -10 -5 3 -33 -6 -62 -19 -29
-13 -65 -27 -80 -31 -15 -4 -32 -13 -39 -21 -6 -8 -18 -14 -26 -14 -8 0 -21
-6 -29 -14 -7 -8 -23 -12 -34 -9 -11 3 -20 0 -20 -6 0 -6 -10 -11 -22 -11 -29
0 -88 -22 -88 -33 0 -4 -8 -7 -17 -6 -10 1 -30 -3 -44 -8 -25 -11 -59 -16 -92
-14 -24 1 -35 37 -36 112 -1 111 6 183 23 223 9 21 14 42 11 46 -3 4 1 23 9
41 7 19 17 60 20 91 4 32 12 60 17 63 5 4 9 17 9 29 0 13 7 40 16 61 8 21 17
52 18 69 2 17 13 53 24 79 12 27 22 58 22 68 0 11 7 33 15 49 8 16 12 35 9 43
-3 8 4 31 15 51 12 20 21 45 21 55 0 10 6 24 13 30 8 6 20 37 27 68 8 32 20
67 27 78 7 11 13 28 13 38 0 10 9 30 20 44 11 14 20 33 20 42 0 9 11 34 25 56
13 22 25 47 25 55 1 29 59 130 93 163 19 17 36 37 38 42 5 13 109 95 120 95 5
0 9 7 9 15 0 8 9 15 20 15 12 0 34 7 50 15 36 19 196 45 235 38 17 -3 44 -11
62 -19 17 -8 35 -14 40 -14 4 0 32 -12 62 -27 42 -22 58 -38 79 -79 64 -120
86 -188 101 -310 5 -34 11 -66 15 -72 3 -5 -1 -23 -9 -38 -8 -16 -15 -41 -15
-55 0 -14 -13 -52 -30 -84 -16 -32 -28 -61 -25 -63 6 -6 -47 -106 -59 -111 -5
-2 -25 -18 -45 -36 -56 -49 -120 -82 -184 -94 -51 -9 -67 -8 -123 10 -35 11
-64 25 -64 30 0 5 25 34 55 64 56 57 70 96 43 123 -26 26 -70 14 -115 -34 -48
-50 -69 -52 -78 -7 -4 15 -10 37 -14 48 -12 31 -3 135 14 172 9 18 17 49 19
69 4 45 38 84 96 111 65 31 104 36 160 23 49 -12 61 -22 40 -35 -5 -3 -10 -15
-10 -25 0 -10 -11 -32 -25 -48 -14 -17 -25 -35 -25 -41 0 -6 -16 -17 -35 -25
-54 -23 -42 -79 20 -90 30 -6 41 -2 74 25 22 17 42 41 45 54 3 13 12 30 19 37
25 28 37 59 43 114 5 54 4 58 -28 91 -59 61 -116 74 -243 53 -40 -6 -66 -16
-77 -30 -9 -11 -23 -20 -31 -20 -28 0 -67 -42 -97 -104 -16 -35 -30 -69 -30
-76 0 -7 -6 -26 -14 -43 -23 -52 -35 -150 -26 -214 10 -71 29 -141 47 -169 11
-18 10 -25 -12 -54 -14 -19 -25 -40 -25 -47 0 -7 -5 -13 -11 -13 -15 0 -99
-88 -99 -104 0 -8 -7 -16 -15 -20 -22 -8 -19 -63 4 -76 11 -5 26 -10 34 -10
18 0 157 129 157 145 0 6 13 21 29 33 l29 21 64 -27 c55 -23 76 -26 165 -26
90 0 107 3 133 22 16 12 36 22 45 22 24 0 54 18 113 67 28 25 52 53 52 63 0
10 8 21 18 25 20 7 70 107 122 242 6 17 9 37 5 43 -4 6 -2 17 5 25 18 22 24
119 11 187 -16 80 -33 150 -39 163 -3 5 -7 18 -8 30 -1 11 -19 55 -40 98 -42
88 -110 158 -172 178 -20 6 -44 17 -52 24 -37 29 -86 39 -191 38 -124 -2 -229
-32 -311 -89 -26 -19 -52 -34 -57 -34 -29 0 -210 -199 -215 -237 -1 -7 -8 -19
-14 -25 -7 -7 -12 -18 -12 -25 0 -8 -10 -27 -21 -42 -12 -16 -19 -34 -15 -39
3 -6 2 -13 -4 -17 -5 -3 -10 -17 -10 -29 0 -13 -7 -29 -15 -36 -20 -17 -55
-96 -55 -125 0 -13 -13 -52 -30 -87 -16 -34 -30 -75 -30 -90 0 -15 -4 -30 -10
-33 -5 -3 -10 -15 -10 -27 0 -11 -8 -37 -19 -57 -42 -82 -92 -254 -77 -268 3
-4 -1 -14 -10 -24 -9 -10 -14 -25 -11 -33 4 -9 0 -28 -8 -43 -8 -15 -15 -38
-15 -50 0 -12 -4 -24 -9 -27 -5 -3 -7 -15 -4 -26 3 -11 0 -27 -7 -35 -7 -8
-14 -32 -16 -53 -7 -62 -11 -86 -22 -113 -6 -15 -12 -63 -13 -108 -2 -46 -6
-84 -10 -87 -11 -6 -9 -245 2 -266 5 -10 16 -18 24 -18 9 0 24 -5 35 -12 15
-10 22 -9 38 5 10 9 28 17 40 17 11 0 23 4 26 9 3 4 26 14 51 21 25 7 48 17
51 21 3 5 16 9 29 9 13 0 27 4 30 10 3 5 17 10 30 10 13 0 25 3 27 8 5 11 76
42 96 42 10 0 33 11 52 23 19 13 41 22 48 20 7 -3 18 0 26 6 7 6 44 20 82 32
38 12 74 24 79 28 6 4 48 22 95 40 47 18 102 41 122 52 20 10 47 19 60 19 13
0 34 9 48 20 14 11 35 20 47 20 12 0 25 5 28 10 3 6 16 10 27 10 12 0 49 15
83 34 34 18 72 34 86 34 13 0 69 19 124 42 55 23 113 45 128 50 16 5 35 14 43
21 8 6 14 9 14 6 0 -4 21 3 48 14 26 12 94 38 152 58 58 21 125 48 150 60 35
18 123 50 137 51 1 0 1 -134 -1 -297 -1 -164 1 -313 5 -331 4 -17 3 -34 -1
-37 -8 -5 -3 -472 5 -485 7 -11 -15 -70 -26 -70 -5 0 -9 4 -9 8 0 5 -22 19
-49 32 -59 27 -97 22 -111 -16 -15 -37 1 -58 76 -100 36 -20 86 -54 111 -76
67 -58 98 -71 128 -56 13 7 37 29 52 49 15 20 54 67 86 105 60 72 69 100 38
128 -35 32 -74 6 -182 -124 l-20 -25 6 29 c3 17 5 131 4 255 -2 211 -2 256 2
314 1 12 0 144 -1 292 -1 149 -1 311 -1 361 l1 91 43 13 c23 7 54 21 68 31 15
10 35 20 45 22 11 1 24 5 29 9 6 3 26 9 45 13 19 4 41 11 50 15 8 5 36 16 63
25 26 9 54 23 61 31 8 8 27 14 43 14 16 0 34 5 40 11 7 7 37 20 69 31 31 10
62 25 69 32 7 7 44 20 81 30 64 16 82 22 154 54 14 6 54 21 90 32 36 12 74 25
85 30 11 4 36 14 55 20 19 7 49 19 65 26 17 7 66 27 110 44 44 17 90 36 103
41 12 5 22 13 22 19 0 6 5 8 11 4 6 -3 21 -2 32 4 12 6 51 21 87 33 71 24 289
110 357 140 23 10 49 19 57 19 8 0 19 7 24 16 5 10 44 26 93 38 46 12 104 32
129 43 43 21 204 83 225 87 6 1 24 10 42 19 18 9 40 17 50 17 10 0 35 9 56 20
20 11 44 20 52 20 9 0 35 9 58 21 59 28 184 69 216 69 14 0 32 4 40 9 8 5 28
5 46 0 20 -6 66 -6 116 0 53 6 88 6 96 0 6 -6 23 -7 37 -3 42 10 33 -25 -18
-73 -52 -49 -65 -98 -33 -125 25 -22 24 -22 71 7 43 26 169 164 188 207 7 15
20 29 30 31 38 10 8 70 -57 113 -16 11 -52 28 -80 38 -66 24 -104 41 -140 66
-16 11 -37 20 -46 20 -25 0 -48 -33 -46 -65 2 -24 12 -33 70 -63 37 -20 65
-38 62 -40 -2 -2 -106 -4 -230 -4 -210 0 -227 2 -259 21 -18 12 -43 21 -55 21
-11 0 -29 8 -39 18 -10 10 -52 29 -93 42 -75 23 -113 39 -226 91 -34 16 -73
29 -87 29 -14 0 -27 4 -30 9 -4 5 -32 17 -64 27 -31 9 -64 23 -73 30 -8 8 -31
16 -50 18 -19 2 -33 9 -32 15 3 12 -65 44 -77 36 -7 -4 -46 11 -92 36 -10 5
-27 14 -38 19 -11 6 -29 15 -40 20 -11 6 -29 10 -40 10 -11 0 -20 5 -20 10 0
6 -7 10 -15 10 -9 0 -33 9 -55 20 -22 11 -50 20 -63 20 -14 0 -30 7 -37 15 -7
8 -29 15 -50 15 -29 0 -39 4 -43 20 -3 14 -14 20 -31 20 -15 0 -44 11 -66 25
-47 30 -106 52 -177 68 -29 7 -61 19 -71 28 -11 9 -48 26 -83 38 -67 24 -138
53 -179 75 -14 7 -30 11 -37 9 -6 -2 -14 1 -18 6 -3 6 -16 11 -29 11 -13 0
-31 9 -41 20 -10 11 -31 20 -47 20 -15 0 -28 4 -28 8 0 4 -17 14 -37 21 -21 8
-56 22 -77 32 -22 11 -50 19 -63 19 -13 0 -23 5 -23 11 0 13 -59 37 -126 51
-30 6 -54 14 -54 19 0 12 -38 30 -74 36 -17 3 -38 11 -47 19 -9 8 -35 18 -59
22 l-43 7 1 270 c1 149 2 272 3 275 1 3 0 10 -1 15 -1 6 -2 169 -2 364 l0 353
84 37 c46 21 89 36 96 33 7 -2 12 1 12 7 0 6 12 11 28 11 15 0 47 9 71 20 24
11 51 20 61 20 10 0 23 6 29 14 6 8 33 17 59 21 26 4 72 18 102 32 30 14 68
27 84 29 16 2 34 8 40 13 6 5 44 19 84 31 40 11 94 31 120 42 26 12 56 22 67
24 23 2 132 40 157 54 10 6 25 10 33 10 8 0 15 5 15 10 0 6 8 10 18 10 17 0
121 33 157 49 32 14 59 25 70 26 6 1 24 7 40 15 17 7 39 16 50 20 11 4 34 13
50 20 17 7 45 14 64 16 19 1 37 8 41 14 4 6 22 13 41 15 49 5 130 33 150 51
10 9 31 17 46 19 15 1 39 7 53 12 14 6 50 18 80 28 30 10 71 23 90 30 19 7 87
30 150 50 63 21 124 44 135 51 11 7 40 17 64 23 53 12 90 -8 91 -50 0 -14 7
-34 15 -45 8 -10 15 -28 15 -39 0 -11 8 -33 18 -50 16 -27 17 -46 11 -175 -12
-234 -19 -341 -30 -400 -5 -30 -15 -107 -23 -170 -8 -63 -22 -135 -30 -160 -9
-25 -16 -54 -16 -65 0 -12 -4 -25 -9 -30 -5 -6 -16 -37 -26 -70 -17 -60 -30
-95 -46 -127 -5 -10 -9 -23 -9 -29 0 -6 -7 -17 -15 -25 -8 -9 -15 -23 -15 -33
0 -10 -9 -26 -20 -36 -11 -10 -20 -30 -20 -45 0 -19 -6 -29 -20 -33 -11 -3
-20 -13 -20 -24 -1 -20 -33 -63 -48 -63 -5 0 -12 -7 -16 -15 -3 -8 -16 -20
-30 -26 -13 -6 -29 -21 -36 -33 -6 -13 -26 -28 -44 -34 -30 -11 -44 -21 -108
-80 -15 -13 -41 -26 -59 -28 -18 -2 -47 -17 -64 -32 -16 -16 -40 -29 -53 -30
-12 0 -35 -7 -50 -15 -16 -8 -50 -12 -80 -10 -29 1 -52 -1 -52 -5 0 -10 -180
-9 -196 0 -5 4 -35 10 -65 14 -30 4 -58 10 -64 14 -5 3 -30 12 -54 19 -99 28
-166 123 -189 266 -9 59 -4 194 9 241 12 47 29 54 122 54 27 0 67 5 89 12 35
10 39 14 36 42 -2 24 -11 35 -38 48 -32 15 -52 15 -117 2 -20 -4 -21 -1 -13
26 5 17 18 42 29 56 12 15 21 31 21 36 0 12 129 138 142 138 6 0 24 7 41 15
75 34 260 59 281 38 4 -5 29 -13 54 -20 91 -23 149 -48 167 -72 11 -14 19 -44
20 -78 2 -48 -1 -58 -26 -86 -16 -17 -32 -40 -35 -49 -3 -10 -15 -18 -27 -18
-13 0 -32 -7 -44 -15 -13 -9 -40 -15 -67 -14 -50 2 -96 -21 -96 -48 0 -10 12
-28 27 -40 70 -60 285 -7 315 78 5 16 14 29 19 29 5 0 9 6 9 14 0 8 7 16 15
20 8 3 15 15 15 26 0 12 6 33 14 48 19 39 29 99 16 107 -5 3 -10 17 -10 30 0
36 -11 56 -36 66 -13 4 -24 15 -24 22 0 7 -26 24 -57 37 -32 12 -66 30 -75 38
-10 8 -41 17 -70 20 -29 2 -58 9 -65 14 -6 5 -20 8 -30 7 -10 -1 -26 2 -37 6
-29 13 -195 -13 -264 -40 -157 -65 -225 -127 -312 -291 -23 -43 -46 -83 -50
-87 -4 -5 -50 -10 -102 -11 -130 -4 -160 -22 -120 -74 15 -19 28 -24 66 -24
26 -1 49 -5 52 -9 2 -5 11 -6 20 -2 15 6 54 -23 54 -39 0 -6 -8 -20 -18 -33
-16 -20 -18 -39 -16 -132 2 -59 8 -124 13 -143 28 -105 43 -150 52 -155 5 -4
21 -24 34 -45 13 -21 38 -44 54 -51 17 -8 31 -17 31 -21 0 -10 80 -48 102 -48
9 0 43 -11 75 -25 47 -21 75 -26 153 -27 227 -4 345 9 375 42 10 11 34 23 54
26 46 8 131 55 131 72 0 7 4 11 10 7 12 -7 80 35 146 92 28 23 55 43 59 43 7
0 33 26 103 103 17 20 32 45 32 56 0 24 27 77 37 72 9 -4 61 97 62 121 1 9 9
24 19 34 9 10 17 22 18 28 0 6 10 32 22 58 12 26 26 67 32 90 6 24 16 61 22
83 6 22 16 56 24 76 7 20 10 39 7 43 -3 3 -1 25 6 48 6 24 13 72 16 108 2 36
10 108 16 160 6 52 13 122 15 155 2 33 6 85 9 115 8 92 8 211 1 295 -10 109
-71 301 -102 322 -13 8 -28 12 -34 8 -5 -3 -20 1 -32 9 -12 9 -34 16 -49 16
-14 0 -61 9 -105 21 -43 12 -95 25 -114 30 -19 4 -67 17 -107 28 -39 11 -80
17 -91 14 -11 -2 -23 0 -26 6 -4 6 -22 11 -41 11 -19 0 -37 5 -40 10 -4 6 -11
8 -16 4 -5 -3 -28 4 -49 15 -43 22 -244 65 -296 62 -21 0 -34 5 -38 15 -4 10
-14 14 -26 11 -10 -3 -20 -1 -22 4 -2 5 -32 12 -68 15 -36 4 -71 11 -77 17 -7
5 -13 6 -13 2 0 -4 -10 -1 -22 7 -26 17 -66 28 -118 33 -20 2 -49 11 -65 19
-17 9 -48 16 -70 16 -23 0 -45 4 -51 10 -5 5 -30 11 -54 13 -25 2 -62 11 -82
20 -21 10 -53 17 -72 17 -19 0 -37 4 -40 9 -3 5 -30 14 -58 20 -29 7 -75 18
-103 26 -51 15 -242 59 -305 71 -19 3 -40 11 -47 16 -7 5 -16 7 -21 4 -5 -3
-36 3 -68 14 -32 11 -65 19 -74 18 -8 -1 -36 6 -62 16 -49 19 -65 45 -48 77 6
10 9 212 9 481 0 567 -2 518 14 518 17 0 67 -55 67 -74 0 -8 9 -21 19 -28 11
-8 27 -30 37 -51 24 -50 80 -69 116 -38 27 23 22 59 -14 94 -36 36 -98 114
-98 124 0 3 -15 19 -32 35 -18 16 -33 35 -33 41 0 7 -10 22 -23 35 -12 12 -22
30 -22 40 0 11 -11 24 -25 30 -27 12 -37 13 -68 5z m195 -1424 c9 -5 28 -9 42
-9 14 0 28 -5 31 -11 4 -6 19 -9 35 -7 15 1 34 -3 42 -9 14 -12 134 -42 203
-50 22 -3 42 -8 45 -12 7 -9 86 -29 150 -37 30 -4 60 -11 67 -16 6 -5 39 -13
74 -19 35 -6 68 -14 74 -18 5 -5 28 -11 50 -15 22 -4 76 -18 120 -31 44 -13
125 -31 180 -41 55 -10 103 -22 107 -27 3 -6 30 -14 60 -19 50 -8 104 -18 173
-33 17 -4 40 -11 52 -17 12 -6 29 -8 39 -4 9 4 24 0 33 -8 21 -18 115 -46 157
-46 18 0 36 -4 39 -10 3 -5 21 -10 38 -10 18 -1 49 -7 70 -14 20 -8 40 -10 42
-5 3 4 20 0 38 -10 36 -20 113 -41 151 -41 33 0 107 -30 101 -40 -3 -5 -29
-16 -59 -24 -29 -9 -59 -22 -65 -30 -7 -8 -18 -13 -26 -10 -7 3 -31 -4 -53
-15 -21 -11 -70 -27 -108 -36 -38 -8 -96 -29 -129 -45 -33 -15 -76 -32 -95
-36 -19 -3 -44 -13 -55 -20 -11 -8 -29 -14 -42 -14 -27 0 -73 -20 -73 -32 0
-5 -9 -6 -20 -3 -13 4 -44 -5 -83 -24 -35 -17 -69 -31 -76 -31 -26 0 -147 -43
-157 -56 -6 -8 -14 -11 -17 -7 -4 3 -13 0 -21 -6 -8 -7 -20 -10 -26 -6 -6 4
-27 -3 -46 -14 -19 -12 -45 -21 -58 -21 -30 0 -87 -19 -106 -36 -8 -7 -33 -15
-55 -19 -36 -7 -117 -35 -155 -55 -9 -4 -31 -11 -50 -15 -19 -4 -41 -11 -50
-16 -8 -4 -75 -27 -149 -50 -73 -23 -145 -52 -160 -65 -18 -15 -35 -21 -49
-17 -12 3 -32 -1 -44 -9 -13 -8 -40 -18 -61 -21 -20 -3 -49 -15 -64 -27 -16
-13 -33 -18 -46 -14 -17 5 -63 -11 -77 -27 -10 -12 -59 -19 -65 -9 -4 6 -6
106 -5 223 1 117 1 223 1 237 -4 95 0 754 4 761 3 4 1 38 -6 74 -16 92 -12 98
58 89 32 -3 66 -10 75 -15z m-242 -1570 c3 -13 3 -44 -1 -69 -4 -25 -3 -65 2
-89 5 -24 7 -52 4 -62 -4 -10 -6 -105 -5 -211 1 -106 1 -204 1 -218 -1 -14 -1
-132 -2 -263 -1 -217 -3 -238 -18 -232 -9 4 -35 13 -59 20 -24 7 -49 18 -56
24 -12 10 -55 27 -216 82 -30 11 -77 31 -104 44 -28 14 -55 25 -61 25 -6 0
-35 11 -63 25 -29 14 -61 25 -71 25 -11 0 -24 6 -28 14 -9 16 -119 63 -180 78
-24 5 -43 14 -43 19 0 5 -9 9 -20 9 -11 0 -46 14 -77 30 -31 17 -65 30 -77 30
-12 0 -30 7 -40 15 -11 8 -30 15 -41 15 -12 0 -30 9 -40 20 -10 11 -24 20 -31
20 -6 0 -44 14 -84 31 -40 17 -78 28 -85 25 -7 -2 -16 2 -19 10 -3 8 -18 14
-34 14 -16 0 -35 6 -41 14 -6 8 -25 20 -42 26 -28 12 -29 14 -14 29 9 9 28 16
43 17 15 1 86 22 157 48 72 26 159 56 193 66 35 11 69 23 75 28 7 6 38 16 70
23 31 7 62 18 68 26 6 7 20 13 30 13 10 0 21 5 24 10 4 6 15 8 24 5 10 -3 23
1 30 9 6 8 28 17 48 21 56 10 217 66 224 77 4 6 11 8 16 5 5 -3 58 12 119 34
60 22 117 43 127 46 9 3 17 9 17 13 0 5 23 11 50 15 28 4 57 14 65 22 8 8 19
12 25 8 5 -3 20 0 32 7 33 18 81 36 93 33 5 -1 12 -12 15 -26z m187 -1339 c13
0 31 -8 41 -18 11 -11 40 -22 66 -25 27 -4 55 -15 64 -26 20 -21 99 -54 112
-46 6 3 27 -6 47 -20 21 -14 50 -25 64 -25 15 0 29 -3 31 -7 5 -11 68 -41 103
-49 17 -4 38 -13 47 -21 9 -8 21 -12 27 -8 6 3 23 -5 37 -18 15 -14 55 -32 93
-42 36 -9 97 -32 135 -51 38 -19 78 -34 88 -34 22 0 56 -17 76 -37 7 -7 25
-13 38 -13 14 0 38 -9 53 -21 16 -12 50 -25 77 -30 26 -5 51 -15 55 -21 4 -7
19 -13 33 -13 14 -1 63 -20 108 -43 107 -53 245 -112 262 -112 8 0 40 -13 71
-30 31 -16 72 -30 90 -30 18 0 38 -6 45 -14 6 -8 17 -13 24 -10 8 3 16 -2 19
-10 3 -8 25 -20 49 -26 24 -7 84 -31 133 -55 97 -47 242 -105 262 -105 7 0 41
-15 76 -34 35 -18 81 -39 101 -46 44 -14 41 -18 -39 -49 -33 -13 -67 -29 -75
-35 -35 -26 -81 -47 -90 -41 -6 4 -25 -3 -44 -14 -18 -12 -42 -21 -53 -21 -11
0 -23 -3 -26 -7 -4 -3 -18 -7 -32 -9 -13 -1 -40 -14 -58 -28 -19 -14 -45 -26
-58 -26 -14 0 -31 -6 -37 -12 -7 -7 -16 -13 -20 -14 -19 -2 -68 -18 -77 -24
-5 -5 -28 -11 -50 -15 -22 -4 -51 -14 -65 -23 -14 -9 -27 -17 -30 -17 -40 -7
-80 -21 -99 -36 -13 -11 -31 -19 -40 -19 -20 0 -167 -51 -201 -70 -14 -8 -27
-15 -30 -16 -9 -2 -44 -16 -77 -30 -17 -8 -38 -14 -46 -14 -8 0 -46 -13 -83
-28 -119 -50 -230 -92 -241 -92 -6 0 -16 -7 -23 -15 -7 -8 -21 -15 -31 -15
-11 0 -19 -5 -19 -11 0 -6 -6 -9 -14 -6 -17 7 -161 -46 -228 -83 -70 -39 -123
-60 -159 -65 -17 -2 -36 -8 -42 -13 -7 -5 -27 -12 -46 -16 -19 -3 -43 -13 -52
-22 -10 -9 -35 -20 -56 -25 -64 -16 -67 -17 -95 -27 -14 -6 -29 -16 -33 -21
-3 -6 -19 -11 -36 -11 -16 0 -29 -4 -29 -9 0 -12 -74 -41 -103 -41 -13 0 -28
-5 -35 -12 -24 -24 -32 9 -32 128 0 65 1 126 1 134 3 80 -6 302 -14 330 -6 24
-6 35 2 38 6 2 11 21 11 42 0 21 4 41 9 44 5 3 87 7 183 8 95 1 177 3 181 6 5
2 31 5 59 6 59 2 89 28 81 71 -7 33 -25 37 -163 30 -200 -9 -342 -10 -347 -2
-3 5 -6 185 -4 232 1 6 78 9 215 8 211 -1 214 -1 235 21 19 20 20 27 10 49
-18 39 -52 47 -179 43 -63 -2 -154 -1 -201 1 l-85 5 4 29 c2 16 0 35 -6 42 -7
8 -7 25 1 54 8 30 8 60 1 103 -6 33 -6 60 -2 60 4 0 8 11 8 24 0 31 9 34 155
41 65 4 124 9 130 13 5 3 55 5 110 3 90 -2 102 0 123 19 29 27 28 32 -13 68
-29 26 -43 31 -87 31 -29 0 -76 -4 -104 -10 -74 -14 -303 -18 -313 -5 -10 12
-5 387 4 417 6 18 8 18 28 4 12 -8 32 -15 44 -15z"/>
</g>
</svg>
