<svg width="549" height="55" viewBox="0 0 549 55" fill="none" xmlns="http://www.w3.org/2000/svg">
<path d="M45.0625 30.0938C44.2083 25.0312 40.0208 22.5 32.5 22.5C31.4792 22.5 30.4271 22.5417 29.3438 22.625C28.5104 22.6875 27.6771 22.9688 26.8438 23.4688C26.0521 23.9479 25.5208 24.4792 25.25 25.0625C24.9792 25.625 25.1354 26.0729 25.7188 26.4062C26.2812 26.7188 27.1146 26.8333 28.2188 26.75C29.9271 26.6042 31.2604 26.5312 32.2188 26.5312C36.8229 26.5312 39.6562 27.8125 40.7188 30.375C41.0521 31.1042 41.2188 31.9062 41.2188 32.7812C41.2188 34.4896 40.1771 36.1771 38.0938 37.8438C37.4479 38.3646 36.5 38.9896 35.25 39.7188C34.4375 40.1979 34.0521 40.7188 34.0938 41.2812C34.1146 41.8229 34.5625 42.2604 35.4375 42.5938C36.3958 42.9688 37.6354 42.8125 39.1562 42.125C40.8438 41.375 42.1667 40.2604 43.125 38.7812C44.5 36.6562 45.1875 34.5417 45.1875 32.4375V31.5938C45.1875 31.3438 45.1458 30.8438 45.0625 30.0938ZM32.0938 32.7188C31.5104 32.6771 30.8333 32.6562 30.0625 32.6562C29.7292 32.6562 28.1354 32.7917 25.2812 33.0625C23.9479 33.1875 22.7188 33.4792 21.5938 33.9375C20.4896 34.3958 19.8021 34.8958 19.5312 35.4375C19.2812 35.9375 19.6354 36.5104 20.5938 37.1562C21.5104 37.7604 22.7917 38.3021 24.4375 38.7812C28.3542 39.9062 30.75 40.1042 31.625 39.375L33.0625 38.1875C34.4375 36.8958 35.125 35.8333 35.125 35C35.125 34.6042 35.0312 34.25 34.8438 33.9375C34.4688 33.2708 33.5521 32.8646 32.0938 32.7188ZM18.625 8.09375C17.1458 8.09375 15.8229 8.48958 14.6562 9.28125C14.0312 9.71875 13.5625 10.2188 13.25 10.7812C12.75 11.6354 12.5938 12.3333 12.7812 12.875C12.7604 12.8125 12.7812 12.9688 12.8438 13.3438C12.8854 13.7396 12.9792 14.1146 13.125 14.4688C13.5208 15.5729 14.2292 16.3646 15.25 16.8438C16.4167 17.3854 18 17.6562 20 17.6562C21.1042 17.6562 22.4062 17.5417 23.9062 17.3125C24.4688 17.2292 25.1042 17.1354 25.8125 17.0312C27.0833 16.8438 28.125 16.0312 28.9375 14.5938C29.2917 13.9479 29.1146 13.1146 28.4062 12.0938C27.6771 11.0104 26.625 10.1667 25.25 9.5625C22.9583 8.58333 20.9479 8.09375 19.2188 8.09375H18.625ZM13 22.6875C12.2292 22.3958 11 21.7292 9.3125 20.6875C8.29167 20.0625 7.67708 19.9271 7.46875 20.2812C7.05208 20.9271 6.84375 21.5729 6.84375 22.2188C6.84375 23.2604 7.45833 24.3229 8.6875 25.4062C10.6458 27.0104 13.25 27.8125 16.5 27.8125C17.2083 27.8125 18.1042 27.75 19.1875 27.625C19.9167 27.5417 20.6458 27.2708 21.375 26.8125C22.1042 26.3542 22.6146 25.8542 22.9062 25.3125C23.1979 24.7708 23.1979 24.3333 22.9062 24C22.6146 23.6667 22.1146 23.5208 21.4062 23.5625C20.4688 23.6042 19.6146 23.625 18.8438 23.625C16.5312 23.625 14.5833 23.3125 13 22.6875ZM4.59375 42.5938C4.01042 42.9062 3.5625 43.2604 3.25 43.6562C2.77083 44.2812 2.65625 44.9896 2.90625 45.7812C3.28125 47.0104 4.0625 47.8646 5.25 48.3438C6.0625 48.6771 7.04167 48.8438 8.1875 48.8438C10.2917 48.8438 12.5104 48.4792 14.8438 47.75C16.6146 47.2083 17.4792 46.3854 17.4375 45.2812C17.3958 44.1771 16.4583 43.375 14.625 42.875C12.125 42.1667 9.88542 41.8125 7.90625 41.8125C6.73958 41.8125 5.63542 42.0729 4.59375 42.5938ZM36.25 47.25C35.1667 47.875 33.7917 48.2188 32.125 48.2812C30.4792 48.3438 29.0417 48.1146 27.8125 47.5938C26.5833 47.0938 25.2083 46.8125 23.6875 46.75C22.1458 46.6875 20.8958 46.8542 19.9375 47.25C18.2292 47.9792 17.0625 48.4375 16.4375 48.625C13.375 49.6667 10.8646 50.1146 8.90625 49.9688L6.78125 49.8438C5.07292 49.7396 3.61458 49.1562 2.40625 48.0938C1.15625 46.9896 0.53125 45.6562 0.53125 44.0938C0.53125 39.1562 4.0625 36.6875 11.125 36.6875C12.0625 36.6875 13.0208 36.7188 14 36.7812C14.8125 36.8438 15.5625 36.7292 16.25 36.4375C16.9792 36.1667 17.4583 35.7917 17.6875 35.3125C18.2292 34.1458 18.3542 33.5833 18.0625 33.625L17.6562 33.6562C15.0521 33.8646 12.3021 33.4375 9.40625 32.375C6.23958 31.1458 4.13542 29.1771 3.09375 26.4688C2.76042 25.6146 2.59375 24.8542 2.59375 24.1875C2.59375 22.6458 3.19792 21.25 4.40625 20C5.88542 18.4583 7.6875 15.7708 9.8125 11.9375C10.7292 10.3125 11.9167 8.83333 13.375 7.5C14.375 6.625 15.4792 5.64583 16.6875 4.5625C17.5833 3.77083 19.0104 3.33333 20.9688 3.25C22.8854 3.1875 24.8021 3.48958 26.7188 4.15625C28.5312 4.78125 30.2083 5.16667 31.75 5.3125C33.25 5.4375 34.1146 5.30208 34.3438 4.90625C34.5521 4.53125 34.7917 4.25 35.0625 4.0625C35.3542 3.89583 35.5833 3.875 35.75 4C36.1875 4.3125 35.2812 6.47917 33.0312 10.5C32.0938 12.1667 31.4062 13.5938 30.9688 14.7812C30.5521 15.9688 30.5 16.5729 30.8125 16.5938L32 16.6875C37.3958 17.0417 41.4167 17.9792 44.0625 19.5C48.0417 21.8542 50.0312 25.1979 50.0312 29.5312V29.875C50.0312 35.4167 46.7396 40.4167 40.1562 44.875C39.0729 45.6042 37.7708 46.3958 36.25 47.25ZM72.8438 8.09375C72.4062 8.42708 72.0417 9.36458 71.75 10.9062C71.4583 12.4479 71.3125 14.1458 71.3125 16V22.6562C71.3125 25.3854 70.6667 27.7812 69.375 29.8438C68.8333 30.6979 68.0208 31.6875 66.9375 32.8125C66.1458 33.6042 65.9062 34.6562 66.2188 35.9688C66.5312 37.3646 67.3854 38.4479 68.7812 39.2188C70.1979 40.0312 71.4896 39.8438 72.6562 38.6562C73.7812 37.4896 74.3438 35.8333 74.3438 33.6875V14.5625C74.3438 12.4375 74.1979 10.7396 73.9062 9.46875C73.6146 8.19792 73.2604 7.73958 72.8438 8.09375ZM74.2188 48C70.5312 48 67.1042 47.2396 63.9375 45.7188C60.5417 43.9896 57.9583 41.6042 56.1875 38.5625C54.25 35.1042 53.2812 31.2917 53.2812 27.125C53.2812 22.2083 54.4896 17.7604 56.9062 13.7812C58.1979 11.6979 59.6979 9.94792 61.4062 8.53125C62.8646 7.32292 63.6771 6.96875 63.8438 7.46875C63.9896 7.94792 63.4688 9.09375 62.2812 10.9062C60.0104 14.3646 58.875 18.2604 58.875 22.5938C58.875 24.8021 59.2604 26.9479 60.0312 29.0312C60.6146 30.6146 61.4062 31.7396 62.4062 32.4062C62.8229 32.6771 63.1771 32.7812 63.4688 32.7188C63.7812 32.6771 63.9583 32.4688 64 32.0938C64.1458 31.2604 64.2188 30.3438 64.2188 29.3438V20.1875C64.2188 18.0417 64.7917 15.7292 65.9375 13.25C67.0833 10.7708 68.4792 8.84375 70.125 7.46875L72.0625 5.8125C73.625 4.5 75.6458 3.67708 78.125 3.34375C80.4167 3.03125 82.5938 3.17708 84.6562 3.78125C88.9479 5.07292 90.3438 6.54167 88.8438 8.1875C87.9896 9.10417 86.7917 9.70833 85.25 10C83.7292 10.2917 82.2917 10.1875 80.9375 9.6875C79.6042 9.1875 78.4583 9.53125 77.5 10.7188C76.5417 11.9062 76.0625 13.5729 76.0625 15.7188V33.875C76.0625 36.0208 76.2292 37.8646 76.5625 39.4062C76.8958 40.9271 77.2917 41.7188 77.75 41.7812C78.625 41.9062 79.1979 41.9688 79.4688 41.9688C82.4688 41.9688 85.3542 41.0417 88.125 39.1875C88.0833 39.2292 88.9062 38.6146 90.5938 37.3438C92.2604 36.1146 93.1562 35.5104 93.2812 35.5312C93.4062 35.5729 93.0833 36.2604 92.3125 37.5938C91.4167 39.1771 90.3646 40.6354 89.1562 41.9688C86.2604 45.1146 82.8438 47.0104 78.9062 47.6562C77.3229 47.8854 75.7604 48 74.2188 48ZM119.969 8.84375C118.365 9.69792 117.062 10.7812 116.062 12.0938C115.062 13.4271 114.635 14.5938 114.781 15.5938C114.948 16.6146 115.385 17.5521 116.094 18.4062C116.823 19.2812 117.635 19.8021 118.531 19.9688C119.885 20.2396 120.979 20.375 121.812 20.375C122.917 20.375 124.26 20.1875 125.844 19.8125C126.969 19.5417 127.812 18.625 128.375 17.0625C128.958 15.4375 128.979 13.7396 128.438 11.9688C127.896 10.2188 126.74 9.03125 124.969 8.40625C123.26 7.82292 121.594 7.96875 119.969 8.84375ZM118.719 21.3125C117.781 21.1458 116.969 21.4479 116.281 22.2188C115.594 22.9688 115.167 24 115 25.3125C114.833 26.6458 114.896 27.6979 115.188 28.4688C115.5 29.3021 116 29.6875 116.688 29.625C117.521 29.5417 118.385 29.5 119.281 29.5C120.906 29.5 122.406 29.625 123.781 29.875C125.052 30.0833 126.229 29.8229 127.312 29.0938C128.458 28.3229 129.146 27.2188 129.375 25.7812C129.583 24.3021 129.344 23.125 128.656 22.25C127.99 21.375 127.115 21.0417 126.031 21.25C124.677 21.5 123.385 21.625 122.156 21.625C121.135 21.625 119.99 21.5208 118.719 21.3125ZM116.625 31C115.771 31.125 114.906 31.6458 114.031 32.5625C113.219 33.3958 112.594 34.3438 112.156 35.4062C111.719 36.5104 111.198 37.6979 110.594 38.9688C110.177 39.7604 109.573 40.9062 108.781 42.4062C107.573 44.6979 107.073 45.8854 107.281 45.9688C107.135 45.9062 108.844 45.0417 112.406 43.375C114.448 42.3958 116.198 41.9062 117.656 41.9062C118.469 41.9062 119.292 41.9896 120.125 42.1562C120.833 42.2812 121.677 41.9271 122.656 41.0938C123.656 40.2188 124.5 39.0833 125.188 37.6875C125.875 36.2292 126.094 34.8438 125.844 33.5312C125.573 32.2188 124.906 31.4271 123.844 31.1562C122.51 30.8438 121.188 30.6875 119.875 30.6875C118.854 30.6875 117.771 30.7917 116.625 31ZM129.25 38.875C128.667 39.6458 127.052 41.5312 124.406 44.5312C123.052 46.0521 121.51 47.1875 119.781 47.9375C118.115 48.6875 116.719 48.875 115.594 48.5C114.073 48 112.719 47.75 111.531 47.75C110.531 47.75 109.438 47.9167 108.25 48.25C105.958 48.9167 104.74 49.1979 104.594 49.0938C104.365 48.9479 104.896 46.7708 106.188 42.5625C107.104 39.6042 107.562 37.4688 107.562 36.1562C107.521 35.8021 107.479 35.3958 107.438 34.9375C107.375 34.2708 107.167 33.5208 106.812 32.6875C106.25 31.4375 105.469 30.5 104.469 29.875C103.135 29.0417 101.583 28.625 99.8125 28.625H99.25C99.0208 28.625 98.9271 28.25 98.9688 27.5C99.0312 26.6667 99.3646 25.9167 99.9688 25.25C100.74 24.3958 101.844 23.9688 103.281 23.9688C104.115 23.9688 104.979 24.125 105.875 24.4375C106.583 24.6667 107.135 24.3958 107.531 23.625C107.969 22.8125 108.094 21.6979 107.906 20.2812C107.698 18.4479 107.354 16.6979 106.875 15.0312C105.646 10.5938 103.781 7.89583 101.281 6.9375C100.552 6.6875 99.9167 6.5625 99.375 6.5625C98.6042 6.5625 97.8229 6.85417 97.0312 7.4375C96.7396 7.64583 96.4896 7.66667 96.2812 7.5C96.0938 7.35417 95.9896 7.07292 95.9688 6.65625C95.9271 5.59375 96.4271 4.42708 97.4688 3.15625C98.8438 1.48958 100.781 0.65625 103.281 0.65625C105.969 0.65625 108.229 1.63542 110.062 3.59375C111.646 5.28125 113.312 6.41667 115.062 7C117.042 7.64583 118.958 7.48958 120.812 6.53125L125.594 4.0625C127.615 3.02083 129.688 2.83333 131.812 3.5C134.021 4.1875 135.469 5.55208 136.156 7.59375C137.219 10.7604 137.75 14.0104 137.75 17.3438C137.75 20.1562 137.302 23.0104 136.406 25.9062C135.156 29.9271 132.771 34.25 129.25 38.875ZM181.531 27.5625C180.885 27.5625 180.333 28.1562 179.875 29.3438C179.417 30.5312 179.177 31.9583 179.156 33.625L179.125 39.7188C179.125 40.5938 179.323 41.3438 179.719 41.9688C180.031 42.4688 180.531 42.7396 181.219 42.7812C181.844 42.8229 182.333 42.6771 182.688 42.3438C183.458 41.6562 183.844 39.0208 183.844 34.4375C183.844 32.5417 183.615 30.9167 183.156 29.5625C182.698 28.2292 182.156 27.5625 181.531 27.5625ZM181.5 9.84375C180.833 10.2812 180.281 11.1875 179.844 12.5625C179.385 13.9375 179.156 15.375 179.156 16.875C179.177 18.375 179.417 19.6458 179.875 20.6875C180.333 21.75 180.885 22.2812 181.531 22.2812C182.156 22.2812 182.698 21.5938 183.156 20.2188C183.615 18.8646 183.844 17.2188 183.844 15.2812C183.844 13.3438 183.615 11.8438 183.156 10.7812C182.698 9.71875 182.146 9.40625 181.5 9.84375ZM164.469 10.0312C163.844 11.3229 163.531 12.7083 163.531 14.1875V20.375C163.531 22.0833 163.667 23.3333 163.938 24.125C164.229 24.9167 164.573 25.0104 164.969 24.4062C165.365 23.8229 165.958 23.3229 166.75 22.9062C167.521 22.4896 168.26 22.2812 168.969 22.2812C169.677 22.2812 170.292 21.6771 170.812 20.4688C171.312 19.2396 171.573 17.7604 171.594 16.0312L171.625 9.78125C171.625 8.57292 171.125 7.70833 170.125 7.1875C169.354 6.77083 168.354 6.875 167.125 7.5C165.875 8.10417 164.99 8.94792 164.469 10.0312ZM159.938 12.5C159.396 13.7292 159.125 15.3958 159.125 17.5V36.875C159.125 38.8542 158.802 40.5417 158.156 41.9375C157.844 42.625 157.26 43.6146 156.406 44.9062C155.948 45.6146 155.865 46 156.156 46.0625C156.781 46.2083 157.281 46.2812 157.656 46.2812C160.698 46.2812 162.219 44.4062 162.219 40.6562V13.75C162.219 12.9167 162.333 12.0729 162.562 11.2188C163.021 9.48958 163.281 8.65625 163.344 8.71875C163.24 8.63542 162.812 8.9375 162.062 9.625C161.146 10.4583 160.438 11.4167 159.938 12.5ZM193.219 46.0938C192.448 44.6562 192.062 42.8646 192.062 40.7188L192.031 18.0938C192.01 15.9062 191.75 13.8646 191.25 11.9688C190.729 10.0521 190.115 8.83333 189.406 8.3125C187.677 7.02083 186.562 6.5 186.062 6.75C185.583 6.97917 185.344 9.625 185.344 14.6875C185.344 16.7917 185.531 18.5833 185.906 20.0625C186.26 21.5417 186.688 22.2812 187.188 22.2812C187.708 22.2812 187.958 22.5417 187.938 23.0625C187.938 23.5833 187.677 24.2083 187.156 24.9375C185.906 26.6875 185.281 29.6458 185.281 33.8125C185.281 35.5417 185.365 36.9583 185.531 38.0625C185.698 39.1667 185.896 39.6354 186.125 39.4688C186.667 39.0521 187.104 39.0312 187.438 39.4062C187.792 39.8021 186.156 41.6042 182.531 44.8125C181.052 46.125 179.438 46.8958 177.688 47.125C175.979 47.375 174.615 47.0208 173.594 46.0625C171.073 43.6875 169.812 42.5104 169.812 42.5312C169.812 42.3854 170.021 42.1042 170.438 41.6875C170.979 41.1875 171.323 40.7292 171.469 40.3125C171.573 40.0208 171.625 39.7188 171.625 39.4062C171.604 37.6354 171.594 35.6667 171.594 33.5C171.573 31.8542 171.177 30.4583 170.406 29.3125C169.615 28.1458 168.667 27.5625 167.562 27.5625C166.458 27.5625 165.521 28.2188 164.75 29.5312C163.979 30.8646 163.594 32.4583 163.594 34.3125V41.0938C163.594 45.8438 162 49.1875 158.812 51.125C157.229 52.1458 155.573 52.6562 153.844 52.6562C153.74 52.6562 151.76 52.3854 147.906 51.8438C147.031 51.7604 146.479 51.7188 146.25 51.7188C145.083 51.7188 144.062 51.9896 143.188 52.5312C142.562 52.9062 141.99 53.4167 141.469 54.0625C141.031 54.625 140.812 54.9062 140.812 54.9062C140.646 54.9062 140.604 54.3333 140.688 53.1875C140.792 51.8542 141.198 50.6458 141.906 49.5625C142.865 48.0417 144.385 47.0729 146.469 46.6562C148.302 46.2604 149.854 45.8438 151.125 45.4062C152.271 45.0104 153.333 44.3333 154.312 43.375C155.146 42.5417 155.635 41.8438 155.781 41.2812C155.927 40.6771 156 40.0833 156 39.5C156 37.625 155.49 35.875 154.469 34.25C153.177 32.1667 151.385 30.8958 149.094 30.4375C148.698 30.3542 148.281 30.3125 147.844 30.3125C147.365 30.3125 146.708 30.4167 145.875 30.625C145.625 30.6875 145.406 30.5938 145.219 30.3438C145.052 30.0938 144.969 29.7604 144.969 29.3438C145.01 28.2604 145.583 27.3021 146.688 26.4688C149.438 24.3854 151.573 21.2083 153.094 16.9375C154.448 13.1458 156.938 10.2812 160.562 8.34375C162.479 7.28125 164.635 6.10417 167.031 4.8125C168.885 3.8125 170.812 3.27083 172.812 3.1875C174.917 3.10417 176.375 3.60417 177.188 4.6875C178.042 5.83333 179.167 6.48958 180.562 6.65625C182.042 6.82292 183.583 6.39583 185.188 5.375C186.833 4.3125 188.604 3.65625 190.5 3.40625C192.396 3.15625 193.865 3.38542 194.906 4.09375C195.927 4.80208 196.948 5.3125 197.969 5.625C198.969 5.91667 199.667 5.91667 200.062 5.625C201 4.91667 201.604 4.66667 201.875 4.875C202.125 5.04167 201.917 5.60417 201.25 6.5625C200.833 7.1875 200.521 7.67708 200.312 8.03125C199.729 9.11458 199.438 10.2292 199.438 11.375V39.5C199.438 42.1042 200.021 43.4062 201.188 43.4062C201.458 43.4062 201.75 43.2917 202.062 43.0625C202.604 42.6667 203 42.5938 203.25 42.8438C203.562 43.1562 202.656 44.3646 200.531 46.4688C199.573 47.4271 198.323 47.9167 196.781 47.9375C195.094 47.9583 193.906 47.3438 193.219 46.0938ZM232.219 12.625C231.781 11.9792 231.469 11.6562 231.281 11.6562C231.115 11.6562 229.667 13.6667 226.938 17.6875L223.781 22.3125C222.656 23.9792 222.344 25.4062 222.844 26.5938C223.323 27.7604 224.479 28.3438 226.312 28.3438C228.125 28.3438 229.677 27.6354 230.969 26.2188C232.26 24.7812 232.906 23.0625 232.906 21.0625V20.9062C232.906 16.0312 232.677 13.2708 232.219 12.625ZM223.656 33.0625C221.635 33.0625 219.792 33.2396 218.125 33.5938C216.458 33.9271 215.448 34.3438 215.094 34.8438C214.76 35.3438 215.115 36.0729 216.156 37.0312C217.219 37.9896 218.667 38.8854 220.5 39.7188L220.906 39.9062C222.74 40.7604 224.583 41.2604 226.438 41.4062C228.271 41.5521 229.573 41.3125 230.344 40.6875C231.135 40.0625 231.802 39.2604 232.344 38.2812C232.885 37.3229 233.156 36.4688 233.156 35.7188C233.156 34.9896 232.448 34.3646 231.031 33.8438C229.615 33.3229 227.896 33.0625 225.875 33.0625H223.656ZM213.656 11.875C211.156 14.0208 209.906 16.7604 209.906 20.0938C209.906 22.1979 210.469 24.1771 211.594 26.0312C212.469 27.4896 213.802 28.0417 215.594 27.6875C217.323 27.3333 218.76 26.3021 219.906 24.5938L220.625 23.5938C221.771 21.8854 222.635 20.3229 223.219 18.9062C223.802 17.4271 223.885 16.5729 223.469 16.3438C222.865 16.0104 222.125 15.9062 221.25 16.0312L220.688 16.0938C219.833 16.1979 219.052 16.5104 218.344 17.0312C217.76 17.4688 217.354 17.625 217.125 17.5C216.875 17.3542 216.896 16.9271 217.188 16.2188C217.562 15.3646 218.125 14.625 218.875 14C220.229 12.9375 222 12.4062 224.188 12.4062C224.854 12.4062 225.5 12.4375 226.125 12.5C227.438 12.625 228.333 12.3229 228.812 11.5938C229.042 11.2396 228.885 10.8125 228.344 10.3125C227.781 9.8125 227.01 9.44792 226.031 9.21875C224.76 8.92708 223.521 8.78125 222.312 8.78125C218.875 8.78125 215.99 9.8125 213.656 11.875ZM234.812 44.9062C234.104 43.8229 233.167 43.2083 232 43.0625C230.792 42.9375 229.531 43.3646 228.219 44.3438C226.865 45.3646 225.24 45.9792 223.344 46.1875C221.469 46.4167 219.875 46.1875 218.562 45.5L213.781 42.9688C212.615 42.3438 211.677 42.0312 210.969 42.0312C210.469 42.0312 210.031 42.2188 209.656 42.5938C209.281 42.9896 209.094 43.4479 209.094 43.9688C209.094 44.1562 209.208 44.5833 209.438 45.25C209.667 45.9375 209.781 46.3854 209.781 46.5938C209.781 47.5312 209.24 48 208.156 48C207.177 48 206.688 47.4167 206.688 46.25C206.688 44.9167 207.469 43.0625 209.031 40.6875C209.927 39.375 210.927 37.9062 212.031 36.2812C212.802 35.1146 213 33.5938 212.625 31.7188C212.292 30.0312 211.552 28.3333 210.406 26.625C208.927 24.4167 208.094 22.2708 207.906 20.1875L207.75 18.6875C207.75 14.875 209.292 11.3958 212.375 8.25C215.438 5.125 219.312 3.5625 224 3.5625C226.396 3.5625 228.75 3.94792 231.062 4.71875C235.521 6.21875 238.792 6.29167 240.875 4.9375C241.75 4.35417 242.708 3.88542 243.75 3.53125C244.604 3.26042 245.052 3.15625 245.094 3.21875C245.073 3.19792 244.427 3.89583 243.156 5.3125C242.469 6.10417 241.885 6.85417 241.406 7.5625C240.365 9.3125 239.875 11.1458 239.938 13.0625L240.469 35.8125C240.51 37.1458 240.646 38.3021 240.875 39.2812C241.104 40.1562 241.542 40.8333 242.188 41.3125C242.771 41.7292 243.229 41.8125 243.562 41.5625C244.271 41.0208 244.792 40.9271 245.125 41.2812C245.271 41.4479 245.021 41.8854 244.375 42.5938C243.729 43.3229 242.875 44.1146 241.812 44.9688C240.708 45.8854 239.448 46.3646 238.031 46.4062C236.51 46.4479 235.438 45.9479 234.812 44.9062ZM274.719 11.0312C274.115 10.9062 273.594 11.4896 273.156 12.7812C272.719 14.0521 272.5 15.6562 272.5 17.5938V24.625C272.5 27.7708 271.854 30.4271 270.562 32.5938C270.021 33.5521 269.167 34.6562 268 35.9062C267.167 36.8021 266.948 37.8229 267.344 38.9688C267.781 40.1979 268.75 41.0417 270.25 41.5C272.958 42.2917 275.052 42.5208 276.531 42.1875C276.823 42.125 276.969 39.5938 276.969 34.5938V18.9688C276.969 16.9062 276.75 15.1042 276.312 13.5625C275.875 12 275.344 11.1562 274.719 11.0312ZM265.25 9.28125C265.021 9.21875 264.406 9.73958 263.406 10.8438C262.198 12.1354 261.167 13.5833 260.312 15.1875C258.667 18.3125 257.844 21.6146 257.844 25.0938C257.844 27.5729 258.333 29.8958 259.312 32.0625C260.083 33.75 261.198 34.9271 262.656 35.5938C263.26 35.8854 263.802 36 264.281 35.9375C264.76 35.875 265.073 35.6458 265.219 35.25C265.573 34.3333 265.75 33.3125 265.75 32.1875V16.9062C265.75 11.9271 265.583 9.38542 265.25 9.28125ZM279.312 11.625C279.188 11.6042 279.042 11.5938 278.875 11.5938C278.604 11.5729 278.469 14.0521 278.469 19.0312V34.3125C278.469 36.4375 279.167 37.9479 280.562 38.8438C281.979 39.7604 283.479 39.6042 285.062 38.375C285.125 38.3125 285.188 38.2604 285.25 38.2188C286.562 37.1771 287.812 35.9375 289 34.5C289.958 33.3542 290.427 32.7812 290.406 32.7812C290.51 32.8438 290.333 33.5729 289.875 34.9688C289.333 36.6562 288.604 38.25 287.688 39.75C285.271 43.7292 281.948 46.25 277.719 47.3125C275.948 47.7708 274.073 48 272.094 48C264.365 48 258.542 45.25 254.625 39.75C252.375 36.625 251.25 33.1146 251.25 29.2188C251.25 27.6771 251.5 25.9375 252 24C252.833 20.8333 254.302 17.9896 256.406 15.4688C257.24 14.4271 258.354 13.2708 259.75 12C260.771 11.1042 261.438 10.3646 261.75 9.78125C262.083 9.17708 261.958 8.86458 261.375 8.84375L259.281 8.75C257.177 8.66667 255.26 9.09375 253.531 10.0312C252.656 10.5312 251.74 11.2917 250.781 12.3125C249.073 14.1458 248.292 15.0625 248.438 15.0625C248.271 15.0625 248.375 14.3333 248.75 12.875C249.208 11.125 249.948 9.54167 250.969 8.125C253.698 4.3125 258.333 2.40625 264.875 2.40625C268.083 2.40625 270.875 2.70833 273.25 3.3125C274.562 3.64583 276.281 4.125 278.406 4.75C280.469 5.35417 282.26 5.65625 283.781 5.65625C285.24 5.65625 286.521 5.35417 287.625 4.75C288.417 4.33333 289.146 3.75 289.812 3C290.396 2.35417 290.677 2.03125 290.656 2.03125C290.76 2.05208 290.792 2.48958 290.75 3.34375C290.688 4.36458 290.448 5.33333 290.031 6.25C289.448 7.5625 288.552 8.66667 287.344 9.5625C285.073 11.2083 282.396 11.8958 279.312 11.625ZM326.75 20.25C325.417 20.8125 324.052 21.0938 322.656 21.0938C321.448 21.0938 320.24 20.8958 319.031 20.5C318.052 20.1667 317.26 20.2917 316.656 20.875C316.031 21.4792 315.719 22.4583 315.719 23.8125C315.719 25.1458 316.062 26.0833 316.75 26.625C317.417 27.1667 318.292 27.25 319.375 26.875C320.792 26.3542 322.135 26.0938 323.406 26.0938C324.781 26.0938 326.156 26.4167 327.531 27.0625C330.073 28.2708 331.49 28.25 331.781 27C332.01 26.0417 332.125 25.1875 332.125 24.4375C332.125 23.2917 331.969 22.1771 331.656 21.0938C331.406 20.2396 330.792 19.7604 329.812 19.6562C328.938 19.5521 327.917 19.75 326.75 20.25ZM319.125 28.25C318.125 28.75 317.292 29.8438 316.625 31.5312C315.979 33.1146 315.656 34.75 315.656 36.4375C315.656 38.125 316.396 39.4271 317.875 40.3438C319.458 41.3229 321.094 41.3021 322.781 40.2812C323.99 39.5521 325.125 38.6146 326.188 37.4688C327.562 35.9896 328.354 34.2604 328.562 32.2812C328.75 30.3229 328.323 29.0208 327.281 28.375C326.01 27.5833 324.656 27.1875 323.219 27.1875C321.906 27.1875 320.542 27.5417 319.125 28.25ZM315.656 13C315.656 14.1458 315.958 15.3229 316.562 16.5312C317.229 17.8229 318.052 18.6979 319.031 19.1562C320.344 19.8021 321.646 20.125 322.938 20.125C324.208 20.125 325.417 19.8125 326.562 19.1875C327.542 18.6458 327.792 17.5312 327.312 15.8438C326.812 14.0938 325.698 12.75 323.969 11.8125C323.594 11.6042 323.198 11.4062 322.781 11.2188C320.99 10.3854 319.333 10.1979 317.812 10.6562C316.375 11.0729 315.656 11.8542 315.656 13ZM312.625 8.875C312.25 8.875 311.927 9.60417 311.656 11.0625C311.385 12.5208 311.25 14.2812 311.25 16.3438V25.9688C311.25 27.8229 310.844 29.4688 310.031 30.9062C309.698 31.5104 308.812 32.625 307.375 34.25C306.542 35.1875 306.25 36.3125 306.5 37.625C306.75 39.0208 307.51 40.0729 308.781 40.7812C310.073 41.5104 311.271 41.2083 312.375 39.875C313.458 38.5625 314 36.8542 314 34.75V16.3438C314 14.2812 313.865 12.5208 313.594 11.0625C313.344 9.60417 313.021 8.875 312.625 8.875ZM300.969 18.2188C299.865 20.5521 299.312 23 299.312 25.5625C299.312 27.5417 299.688 29.4479 300.438 31.2812C301.021 32.7396 301.844 33.6667 302.906 34.0625C303.365 34.2292 303.771 34.2396 304.125 34.0938C304.479 33.9479 304.719 33.6562 304.844 33.2188C305.135 32.1771 305.281 31.0833 305.281 29.9375V19.625C305.281 17.5417 304.781 16.3229 303.781 15.9688C302.781 15.6146 301.844 16.3646 300.969 18.2188ZM309.875 48C306.604 48 303.615 47.0625 300.906 45.1875C298.24 43.2708 296.312 40.75 295.125 37.625C294.167 35.0208 293.688 32.2083 293.688 29.1875C293.688 27.0833 293.865 24.9792 294.219 22.875C294.49 21.2083 295.365 19.4167 296.844 17.5C298.198 15.7292 299.677 14.3333 301.281 13.3125C302.948 12.25 304.76 11.0625 306.719 9.75C308.302 8.70833 310.104 7.46875 312.125 6.03125C313.688 4.92708 315.594 4.11458 317.844 3.59375C320.24 3.05208 322.271 3.0625 323.938 3.625C326.104 4.33333 328.104 5.28125 329.938 6.46875C333.979 8.98958 336.656 12.375 337.969 16.625C338.469 18.2708 338.719 19.8542 338.719 21.375C338.719 27.5 335.24 33.625 328.281 39.75C321.969 45.25 315.833 48 309.875 48ZM369.812 7.09375C369.021 7.63542 368.625 10.6875 368.625 16.25V18.1875C368.625 20.5 369.167 22.0729 370.25 22.9062C371.333 23.7396 372.635 23.5938 374.156 22.4688C375.677 21.3438 376.552 19.7917 376.781 17.8125C377.01 15.8542 376.531 14.0312 375.344 12.3438C374.156 10.6771 373.021 9.33333 371.938 8.3125C370.854 7.27083 370.146 6.86458 369.812 7.09375ZM365.312 10.2812C364.833 10.5938 364.427 11.6771 364.094 13.5312C363.74 15.3854 363.562 17.4688 363.562 19.7812V32.4375C363.562 34.75 363.74 36.7292 364.094 38.375C364.427 40 364.833 40.8438 365.312 40.9062C365.792 40.9688 366.198 40.2292 366.531 38.6875C366.865 37.1458 367.031 35.2188 367.031 32.9062V17.4688C367.031 15.1771 366.865 13.3229 366.531 11.9062C366.177 10.5104 365.771 9.96875 365.312 10.2812ZM352.562 19.4062C351.771 19.9271 351.375 20.6042 351.375 21.4375C351.375 22.25 351.771 22.9792 352.562 23.625C353.354 24.25 354.031 24.3854 354.594 24.0312C355.156 23.6562 355.438 22.8854 355.438 21.7188C355.438 20.5521 355.156 19.7396 354.594 19.2812C354.031 18.8438 353.354 18.8854 352.562 19.4062ZM387.656 52C387.469 52 387 51.6354 386.25 50.9062C385.312 50.0104 384.51 49.0104 383.844 47.9062C383.052 46.5521 382.281 44.9479 381.531 43.0938C379.26 37.5521 377.771 34.2604 377.062 33.2188C376.062 31.6771 374.865 30.5208 373.469 29.75C372.281 29.0625 371.177 29.3333 370.156 30.5625C369.135 31.75 368.625 33.2812 368.625 35.1562C368.625 36.9688 368.99 38.6667 369.719 40.25C370.406 41.7917 371.25 42.7917 372.25 43.25C374.646 44.3333 376.062 44.6771 376.5 44.2812C377.042 43.8021 377.479 43.7292 377.812 44.0625C378.146 44.3958 377 45.875 374.375 48.5C373.312 49.6042 372.188 50.4167 371 50.9375C369.812 51.4583 368.927 51.5417 368.344 51.1875C367.281 50.5625 366.562 50.1458 366.188 49.9375C364.021 48.75 361.844 48.0312 359.656 47.7812C358.531 47.6771 357.583 47.625 356.812 47.625C354.562 47.625 352.042 47.9583 349.25 48.625C344.312 49.8125 341.865 50.5208 341.906 50.75C341.885 50.5833 342.396 49.8958 343.438 48.6875C344.771 47.1667 346.229 45.8438 347.812 44.7188C347.938 44.6146 348.083 44.5104 348.25 44.4062C350.458 42.8854 352.104 41.125 353.188 39.125C354.479 36.75 354.542 34.6875 353.375 32.9375C352.521 31.625 351.427 30.3854 350.094 29.2188C348.302 27.6354 347.312 26.0521 347.125 24.4688C346.917 22.7812 347.646 21.3125 349.312 20.0625C353.458 16.9583 355.542 14.8646 355.562 13.7812L355.594 12.125C355.677 7.375 353.583 5 349.312 5C348.646 5 347.823 5.09375 346.844 5.28125C345.219 5.59375 344.406 5.61458 344.406 5.34375C344.406 5.13542 344.823 4.6875 345.656 4C346.656 3.16667 347.76 2.51042 348.969 2.03125C350.656 1.34375 352.406 1 354.219 1C356.781 1 358.865 1.83333 360.469 3.5C363.594 6.75 366.75 7.32292 369.938 5.21875C371.833 3.96875 373.771 3.33333 375.75 3.3125C377.729 3.27083 379.177 3.86458 380.094 5.09375C381.01 6.32292 382.104 7.79167 383.375 9.5C383.958 10.3125 384.604 11.2083 385.312 12.1875C385.854 12.9375 385.792 13.9479 385.125 15.2188C384.458 16.4896 383.385 17.6562 381.906 18.7188C380.448 19.7604 379.677 20.9792 379.594 22.375C379.531 23.7292 380.125 24.9792 381.375 26.125C382.917 27.5625 384.188 29.1042 385.188 30.75C385.958 32.0625 387.031 34.75 388.406 38.8125C388.885 40.1875 389.417 41.4062 390 42.4688C390.5 43.3646 391.125 44.0729 391.875 44.5938C392.542 45.0521 393 45.1771 393.25 44.9688C393.812 44.5521 394.25 44.4896 394.562 44.7812C394.875 45.0938 393.865 46.375 391.531 48.625C389.198 50.875 387.906 52 387.656 52ZM425.062 10.5C425.125 11.6667 425.375 14.3125 425.812 18.4375C426.938 25.8125 427.5 30.5729 427.5 32.7188C427.5 36.4688 426.865 39.5625 425.594 42C423.594 45.9375 420.708 47.9062 416.938 47.9062H416.219C414.719 47.9062 412.792 47.5208 410.438 46.75C406.604 45.375 404.115 44.6875 402.969 44.6875C401.844 44.6875 400.844 45 399.969 45.625C399.365 46.0417 398.833 46.5625 398.375 47.1875C397.979 47.7083 397.792 47.9792 397.812 48C397.688 47.9375 397.719 47.3542 397.906 46.25C398.115 44.8542 398.604 43.6146 399.375 42.5312C400.146 41.4271 401.24 40.6042 402.656 40.0625C403.49 39.75 404.229 39.5729 404.875 39.5312L405.594 39.5L407.062 39.5625C408.083 39.6042 408.927 39.5104 409.594 39.2812C410.198 39.0729 410.719 38.5417 411.156 37.6875C411.51 37 411.729 36.3125 411.812 35.625C411.875 35 411.906 34.3229 411.906 33.5938C411.906 29.8854 411.167 27.3542 409.688 26C408.979 25.2917 407.906 24.9375 406.469 24.9375C405.76 24.9375 404.885 25.0729 403.844 25.3438C403.49 25.4271 403.198 25.375 402.969 25.1875C402.76 25 402.667 24.7188 402.688 24.3438C402.708 23.4271 403.302 22.5938 404.469 21.8438C406.469 20.5729 407.698 19.7604 408.156 19.4062C409.365 18.4479 410.062 17.5104 410.25 16.5938C410.542 15.1354 410.896 13.8854 411.312 12.8438C411.708 11.8438 412.344 10.7292 413.219 9.5C414.469 7.72917 414.417 7.05208 413.062 7.46875C412.042 7.80208 411.146 7.96875 410.375 7.96875C409.896 7.96875 408.906 7.85417 407.406 7.625C406.135 7.35417 405.156 7.21875 404.469 7.21875H404.062C403.208 7.21875 402.438 7.54167 401.75 8.1875C401.354 8.58333 400.958 9.05208 400.562 9.59375C400.271 10.0521 400.115 10.2812 400.094 10.2812C399.927 10.2396 400.042 9.67708 400.438 8.59375C400.875 7.32292 401.573 6.21875 402.531 5.28125C403.99 3.88542 405.708 3.1875 407.688 3.1875H408.156C409.385 3.1875 410.479 3.28125 411.438 3.46875C413.854 3.86458 415.24 4.0625 415.594 4.0625C416.219 4.0625 417.125 3.94792 418.312 3.71875C420.104 3.36458 421 3.19792 421 3.21875C420.979 3.11458 420.469 3.64583 419.469 4.8125C418.281 6.16667 417.375 7.61458 416.75 9.15625C415.896 11.3021 415.469 13.7396 415.469 16.4688C415.469 18.6146 415.625 20.7917 415.938 23C416.75 28.9792 417.156 32.3333 417.156 33.0625C417.156 35.5208 416.594 37.375 415.469 38.625C413.76 40.5208 412.875 41.5 412.812 41.5625C412.312 42.3958 412.521 43.1562 413.438 43.8438C414.312 44.4896 415.333 44.9479 416.5 45.2188C417.292 45.4062 417.833 45.4688 418.125 45.4062L418.5 45.3438C420.646 44.9271 421.719 43.0312 421.719 39.6562C421.719 38.7604 421.625 37.6562 421.438 36.3438C421.354 35.7604 421.292 35.2188 421.25 34.7188C421.229 34.4271 420.844 31.4688 420.094 25.8438C419.552 21.8229 419.281 18.8125 419.281 16.8125C419.281 11.625 420.365 7.91667 422.531 5.6875C423.698 4.47917 425.156 3.71875 426.906 3.40625C427.469 3.32292 428.01 3.29167 428.531 3.3125C428.948 3.33333 429.156 3.375 429.156 3.4375C429.156 3.4375 428.562 3.76042 427.375 4.40625C426.688 4.76042 426.188 5.15625 425.875 5.59375C425.229 6.51042 424.938 7.77083 425 9.375L425.062 10.5ZM467.938 20.75C467 20.9792 466.115 21.0938 465.281 21.0938C464.469 21.0938 463.594 20.9792 462.656 20.75C461.927 20.5625 461.323 20.7292 460.844 21.25C460.365 21.7708 460.125 22.5312 460.125 23.5312C460.125 24.5521 460.365 25.3229 460.844 25.8438C461.323 26.3646 461.927 26.5417 462.656 26.375C463.531 26.1667 464.406 26.0625 465.281 26.0625C466.135 26.0625 467.021 26.1667 467.938 26.375C468.646 26.5417 469.24 26.3646 469.719 25.8438C470.198 25.3229 470.438 24.5521 470.438 23.5312C470.438 22.5312 470.198 21.7708 469.719 21.25C469.24 20.7292 468.646 20.5625 467.938 20.75ZM468.062 27.625C467.104 27.3125 466.229 27.1562 465.438 27.1562C464.583 27.1562 463.656 27.3021 462.656 27.5938C461.927 27.8229 461.312 28.6771 460.812 30.1562C460.333 31.5938 460.094 33.1979 460.094 34.9688C460.115 36.7604 460.667 38.1771 461.75 39.2188C462.875 40.2812 464.146 40.5417 465.562 40C466.958 39.4792 468.146 38.4792 469.125 37C470.042 35.625 470.5 34.3021 470.5 33.0312C470.5 31.7812 470.271 30.625 469.812 29.5625C469.333 28.4792 468.75 27.8333 468.062 27.625ZM456.406 6.84375C455.927 7.98958 455.688 9.21875 455.688 10.5312V24.8125C455.688 27.8333 454.885 30.5417 453.281 32.9375C451.969 34.875 451.229 36.4896 451.062 37.7812C450.854 39.3229 451.458 40.3021 452.875 40.7188C454.354 41.1354 455.677 40.625 456.844 39.1875C457.969 37.7708 458.531 36 458.531 33.875V11.3438C458.531 9.30208 458.281 7.79167 457.781 6.8125C457.552 6.375 457.323 6.15625 457.094 6.15625C456.844 6.15625 456.615 6.38542 456.406 6.84375ZM443.125 22.9375C443.146 22.8125 443.083 23.4167 442.938 24.75C442.875 25.3542 442.844 25.7396 442.844 25.9062C442.844 28.0312 443.177 30.0417 443.844 31.9375C444.385 33.5 445.281 34.4896 446.531 34.9062C447.073 35.0938 447.562 35.1042 448 34.9375C448.438 34.75 448.75 34.4062 448.938 33.9062C449.333 32.7188 449.531 31.4062 449.531 29.9688L449.469 18.4688C449.469 16.2396 450.021 14.0625 451.125 11.9375C451.979 10.2708 452.229 9.34375 451.875 9.15625C451.5 8.94792 450.573 9.57292 449.094 11.0312C445.844 14.2188 443.885 17.9688 443.219 22.2812C443.198 22.3854 443.177 22.5 443.156 22.625C443.135 22.7917 443.125 22.8958 443.125 22.9375ZM475.812 48C475.542 48 475.031 47.6562 474.281 46.9688C473.385 46.1146 472.656 45.1562 472.094 44.0938C470.844 41.7812 468.375 41.8646 464.688 44.3438C462.333 45.9479 460.021 46.9792 457.75 47.4375C456.396 47.7708 454.917 47.9375 453.312 47.9375C447.438 47.9375 442.885 45.8646 439.656 41.7188C436.969 38.1979 435.625 34.3021 435.625 30.0312C435.625 27.8229 436.062 25.5 436.938 23.0625C438.25 19.2292 440.365 15.9271 443.281 13.1562C444.573 11.9479 446.135 10.7396 447.969 9.53125C451.344 7.32292 453.042 6.28125 453.062 6.40625C453.042 6.36458 452.073 6.52083 450.156 6.875C448.885 7.125 447.917 7.25 447.25 7.25C446.896 7.25 446.125 7.20833 444.938 7.125C443.75 7.0625 442.99 7.03125 442.656 7.03125H441.031C439.094 7.21875 437.427 7.94792 436.031 9.21875C435.094 10.0521 434.271 11.0833 433.562 12.3125C432.917 13.3958 432.625 13.9271 432.688 13.9062C432.583 13.9479 432.521 13.5312 432.5 12.6562C432.5 11.6562 432.615 10.625 432.844 9.5625C433.198 8 433.75 6.625 434.5 5.4375C436.25 2.83333 438.76 1.53125 442.031 1.53125C443.385 1.53125 445.24 1.83333 447.594 2.4375C450.031 3 451.865 3.28125 453.094 3.28125C454.115 3.28125 455.062 3.14583 455.938 2.875C456.458 2.70833 457.146 2.42708 458 2.03125C458.708 1.69792 459.125 1.53125 459.25 1.53125C459.792 1.53125 460.062 4.0625 460.062 9.125V10.75C460.062 12.875 460.312 14.7812 460.812 16.4688C461.312 18.2188 461.927 19.1979 462.656 19.4062C463.615 19.6979 464.542 19.8438 465.438 19.8438C466.292 19.8438 467.167 19.7083 468.062 19.4375C468.75 19.2083 469.333 18.5625 469.812 17.5C470.271 16.4583 470.5 15.3438 470.5 14.1562C470.5 12.9896 470.354 11.8958 470.062 10.875C469.75 9.85417 469.375 9.1875 468.938 8.875C468.521 8.58333 468.042 8.45833 467.5 8.5C466.979 8.54167 466.552 8.75 466.219 9.125C465.469 10 464.938 10.3125 464.625 10.0625C464.333 9.8125 465.333 8.34375 467.625 5.65625C468.583 4.53125 469.708 3.78125 471 3.40625C472.292 3.01042 473.375 3.10417 474.25 3.6875C475.125 4.27083 476.031 4.625 476.969 4.75C477.906 4.89583 478.615 4.77083 479.094 4.375C480.198 3.45833 480.844 3.05208 481.031 3.15625C480.885 3.07292 480.302 4.21875 479.281 6.59375C478.74 7.82292 478.469 9.0625 478.469 10.3125V38.0938C478.469 39.0312 478.542 39.8646 478.688 40.5938C478.833 41.2396 479.156 41.6875 479.656 41.9375C480.115 42.1875 480.521 42.1667 480.875 41.875C481.625 41.2292 482.115 41.0625 482.344 41.375C482.594 41.7083 481.677 42.8958 479.594 44.9375C477.531 46.9792 476.271 48 475.812 48ZM526.281 27.5625C525.635 27.5625 525.083 28.1562 524.625 29.3438C524.167 30.5312 523.927 31.9583 523.906 33.625L523.875 39.7188C523.875 40.5938 524.073 41.3438 524.469 41.9688C524.781 42.4688 525.281 42.7396 525.969 42.7812C526.594 42.8229 527.083 42.6771 527.438 42.3438C528.208 41.6562 528.594 39.0208 528.594 34.4375C528.594 32.5417 528.365 30.9167 527.906 29.5625C527.448 28.2292 526.906 27.5625 526.281 27.5625ZM526.25 9.84375C525.583 10.2812 525.031 11.1875 524.594 12.5625C524.135 13.9375 523.906 15.375 523.906 16.875C523.927 18.375 524.167 19.6458 524.625 20.6875C525.083 21.75 525.635 22.2812 526.281 22.2812C526.906 22.2812 527.448 21.5938 527.906 20.2188C528.365 18.8646 528.594 17.2188 528.594 15.2812C528.594 13.3438 528.365 11.8438 527.906 10.7812C527.448 9.71875 526.896 9.40625 526.25 9.84375ZM509.219 10.0312C508.594 11.3229 508.281 12.7083 508.281 14.1875V20.375C508.281 22.0833 508.417 23.3333 508.688 24.125C508.979 24.9167 509.323 25.0104 509.719 24.4062C510.115 23.8229 510.708 23.3229 511.5 22.9062C512.271 22.4896 513.01 22.2812 513.719 22.2812C514.427 22.2812 515.042 21.6771 515.562 20.4688C516.062 19.2396 516.323 17.7604 516.344 16.0312L516.375 9.78125C516.375 8.57292 515.875 7.70833 514.875 7.1875C514.104 6.77083 513.104 6.875 511.875 7.5C510.625 8.10417 509.74 8.94792 509.219 10.0312ZM504.688 12.5C504.146 13.7292 503.875 15.3958 503.875 17.5V36.875C503.875 38.8542 503.552 40.5417 502.906 41.9375C502.594 42.625 502.01 43.6146 501.156 44.9062C500.698 45.6146 500.615 46 500.906 46.0625C501.531 46.2083 502.031 46.2812 502.406 46.2812C505.448 46.2812 506.969 44.4062 506.969 40.6562V13.75C506.969 12.9167 507.083 12.0729 507.312 11.2188C507.771 9.48958 508.031 8.65625 508.094 8.71875C507.99 8.63542 507.562 8.9375 506.812 9.625C505.896 10.4583 505.188 11.4167 504.688 12.5ZM537.969 46.0938C537.198 44.6562 536.812 42.8646 536.812 40.7188L536.781 18.0938C536.76 15.9062 536.5 13.8646 536 11.9688C535.479 10.0521 534.865 8.83333 534.156 8.3125C532.427 7.02083 531.312 6.5 530.812 6.75C530.333 6.97917 530.094 9.625 530.094 14.6875C530.094 16.7917 530.281 18.5833 530.656 20.0625C531.01 21.5417 531.438 22.2812 531.938 22.2812C532.458 22.2812 532.708 22.5417 532.688 23.0625C532.688 23.5833 532.427 24.2083 531.906 24.9375C530.656 26.6875 530.031 29.6458 530.031 33.8125C530.031 35.5417 530.115 36.9583 530.281 38.0625C530.448 39.1667 530.646 39.6354 530.875 39.4688C531.417 39.0521 531.854 39.0312 532.188 39.4062C532.542 39.8021 530.906 41.6042 527.281 44.8125C525.802 46.125 524.188 46.8958 522.438 47.125C520.729 47.375 519.365 47.0208 518.344 46.0625C515.823 43.6875 514.562 42.5104 514.562 42.5312C514.562 42.3854 514.771 42.1042 515.188 41.6875C515.729 41.1875 516.073 40.7292 516.219 40.3125C516.323 40.0208 516.375 39.7188 516.375 39.4062C516.354 37.6354 516.344 35.6667 516.344 33.5C516.323 31.8542 515.927 30.4583 515.156 29.3125C514.365 28.1458 513.417 27.5625 512.312 27.5625C511.208 27.5625 510.271 28.2188 509.5 29.5312C508.729 30.8646 508.344 32.4583 508.344 34.3125V41.0938C508.344 45.8438 506.75 49.1875 503.562 51.125C501.979 52.1458 500.323 52.6562 498.594 52.6562C498.49 52.6562 496.51 52.3854 492.656 51.8438C491.781 51.7604 491.229 51.7188 491 51.7188C489.833 51.7188 488.812 51.9896 487.938 52.5312C487.312 52.9062 486.74 53.4167 486.219 54.0625C485.781 54.625 485.562 54.9062 485.562 54.9062C485.396 54.9062 485.354 54.3333 485.438 53.1875C485.542 51.8542 485.948 50.6458 486.656 49.5625C487.615 48.0417 489.135 47.0729 491.219 46.6562C493.052 46.2604 494.604 45.8438 495.875 45.4062C497.021 45.0104 498.083 44.3333 499.062 43.375C499.896 42.5417 500.385 41.8438 500.531 41.2812C500.677 40.6771 500.75 40.0833 500.75 39.5C500.75 37.625 500.24 35.875 499.219 34.25C497.927 32.1667 496.135 30.8958 493.844 30.4375C493.448 30.3542 493.031 30.3125 492.594 30.3125C492.115 30.3125 491.458 30.4167 490.625 30.625C490.375 30.6875 490.156 30.5938 489.969 30.3438C489.802 30.0938 489.719 29.7604 489.719 29.3438C489.76 28.2604 490.333 27.3021 491.438 26.4688C494.188 24.3854 496.323 21.2083 497.844 16.9375C499.198 13.1458 501.688 10.2812 505.312 8.34375C507.229 7.28125 509.385 6.10417 511.781 4.8125C513.635 3.8125 515.562 3.27083 517.562 3.1875C519.667 3.10417 521.125 3.60417 521.938 4.6875C522.792 5.83333 523.917 6.48958 525.312 6.65625C526.792 6.82292 528.333 6.39583 529.938 5.375C531.583 4.3125 533.354 3.65625 535.25 3.40625C537.146 3.15625 538.615 3.38542 539.656 4.09375C540.677 4.80208 541.698 5.3125 542.719 5.625C543.719 5.91667 544.417 5.91667 544.812 5.625C545.75 4.91667 546.354 4.66667 546.625 4.875C546.875 5.04167 546.667 5.60417 546 6.5625C545.583 7.1875 545.271 7.67708 545.062 8.03125C544.479 9.11458 544.188 10.2292 544.188 11.375V39.5C544.188 42.1042 544.771 43.4062 545.938 43.4062C546.208 43.4062 546.5 43.2917 546.812 43.0625C547.354 42.6667 547.75 42.5938 548 42.8438C548.312 43.1562 547.406 44.3646 545.281 46.4688C544.323 47.4271 543.073 47.9167 541.531 47.9375C539.844 47.9583 538.656 47.3438 537.969 46.0938Z" fill="white"/>
</svg>
